HIERARCHY
ROOT Hips
{
	OFFSET 0.000000 0.000000 0.000000 
	CHANNELS 6 Xposition Yposition Zposition Zrotation Xrotation Yrotation
	JOINT LeftUpLeg
	{
		OFFSET 2.390000 -0.997500 0.003131 
		CHANNELS 3 Zrotation Xrotation Yrotation
		JOINT LeftUpLegRoll
		{
			OFFSET -0.008228 -5.368025 -0.050000 
			CHANNELS 3 Zrotation Xrotation Yrotation
			JOINT LeftLeg
			{
				OFFSET 0.008228 -5.304475 -0.040000 
				CHANNELS 3 Zrotation Xrotation Yrotation
				JOINT LeftLegRoll
				{
					OFFSET 0.008266 -8.023550 -0.789272 
					CHANNELS 3 Zrotation Xrotation Yrotation
					JOINT LeftFoot
					{
						OFFSET -0.008285 -2.447005 -0.176461 
						CHANNELS 3 Zrotation Xrotation Yrotation
						End Site
						{
							OFFSET -0.006362 -1.603547 3.533050 
						}
					}
				}
			}
		}
	}
	JOINT RightUpLeg
	{
		OFFSET -2.390000 -0.997500 0.003131 
		CHANNELS 3 Zrotation Xrotation Yrotation
		JOINT RightUpLegRoll
		{
			OFFSET 0.007500 -5.367500 -0.050000 
			CHANNELS 3 Zrotation Xrotation Yrotation
			JOINT RightLeg
			{
				OFFSET -0.007500 -5.305000 -0.040000 
				CHANNELS 3 Zrotation Xrotation Yrotation
				JOINT RightLegRoll
				{
					OFFSET 0.005000 -8.024050 -0.790258 
					CHANNELS 3 Zrotation Xrotation Yrotation
					JOINT RightFoot
					{
						OFFSET 0.020000 -2.446472 -0.175476 
						CHANNELS 3 Zrotation Xrotation Yrotation
						End Site
						{
							OFFSET 0.010000 -1.603528 3.533050 
						}
					}
				}
			}
		}
	}
	JOINT Spine
	{
		OFFSET 0.000524 2.857650 0.095838 
		CHANNELS 3 Zrotation Xrotation Yrotation
		JOINT Spine1
		{
			OFFSET 0.000000 3.491675 -0.016748 
			CHANNELS 3 Zrotation Xrotation Yrotation
			JOINT Spine2
			{
				OFFSET 0.000000 2.811225 -0.017190 
				CHANNELS 3 Zrotation Xrotation Yrotation
				JOINT Spine3
				{
					OFFSET 0.000000 3.297825 -0.158152 
					CHANNELS 3 Zrotation Xrotation Yrotation
					JOINT LeftShoulder
					{
						OFFSET 2.247500 -0.945430 -0.255617 
						CHANNELS 3 Zrotation Xrotation Yrotation
						JOINT LeftArm
						{
							OFFSET 2.422500 0.192500 0.242500 
							CHANNELS 3 Zrotation Xrotation Yrotation
							JOINT LeftArmRoll
							{
								OFFSET 3.011150 -0.056125 -0.149282 
								CHANNELS 3 Zrotation Xrotation Yrotation
								JOINT LeftForeArm
								{
									OFFSET 3.544950 0.021691 -0.254337 
									CHANNELS 3 Zrotation Xrotation Yrotation
									JOINT LeftForeArmRoll
									{
										OFFSET 3.242425 0.024099 -0.017220 
										CHANNELS 3 Zrotation Xrotation Yrotation
										End Site
										{
											OFFSET 3.371325 0.031393 -0.007218 
										}
									}
								}
							}
						}
					}
					JOINT RightShoulder
					{
						OFFSET -2.247500 -0.945430 -0.255617 
						CHANNELS 3 Zrotation Xrotation Yrotation
						JOINT RightArm
						{
							OFFSET -2.422500 0.192500 0.242500 
							CHANNELS 3 Zrotation Xrotation Yrotation
							JOINT RightArmRoll
							{
								OFFSET -3.062100 -0.062702 -0.132500 
								CHANNELS 3 Zrotation Xrotation Yrotation
								JOINT RightForeArm
								{
									OFFSET -3.498150 0.035499 -0.338573 
									CHANNELS 3 Zrotation Xrotation Yrotation
									JOINT RightForeArmRoll
									{
										OFFSET -3.278950 0.026904 0.120309 
										CHANNELS 3 Zrotation Xrotation Yrotation
										End Site
										{
											OFFSET -3.349925 0.018716 0.058049 
										}
									}
								}
							}
						}
					}
					JOINT Neck
					{
						OFFSET 0.000000 1.108613 -0.101302 
						CHANNELS 3 Zrotation Xrotation Yrotation
						End Site
						{
							OFFSET 0.000000 1.617325 0.410885 
						}
					}
				}
			}
		}
	}
}
MOTION
Frames: 12
Frame Time: 0.041667
-0.546770 33.024502 -1.270813 -1.008180 3.443060 0.117064 0.330357 0.982762 9.634420 0.000000 -0.000000 0.000000 0.195266 -1.346200 0.104818 0.000000 -0.000000 0.000000 -17.950701 35.278999 5.346690 4.415580 0.994780 1.675760 0.000000 0.000000 0.000000 -0.629087 3.953770 0.264666 -0.000000 0.000000 0.000000 12.646200 26.189600 -4.575260 1.485930 -0.126404 -0.320862 -0.000000 0.000000 -0.000000 0.000000 0.000000 -0.000000 0.000000 -0.000000 0.000000 -18.587500 -0.550721 2.869080 -70.276901 42.170399 32.555199 0.000000 -0.000000 0.000000 4.550170 -17.036301 -14.746800 -0.000000 0.000000 -0.000000 16.996901 0.319309 0.406354 66.454697 35.446602 -30.076799 -0.000000 0.000000 0.000000 -3.228060 -9.017980 5.343260 -0.000000 0.000000 0.000000 0.000000 0.000000 0.000000 
-0.588525 33.272999 -1.202778 -0.949504 3.359800 -0.624210 0.205620 0.451917 10.810300 0.000000 -0.000000 0.000000 0.005262 -0.808020 0.096182 0.000000 -0.000000 0.000000 -19.033701 35.236301 5.685730 4.284310 0.117200 -0.483585 0.000000 0.000000 0.000000 -0.190587 5.220230 0.198715 -0.000000 0.000000 0.000000 11.973000 25.613501 -4.378410 1.446610 -0.106863 -0.253671 -0.000000 0.000000 -0.000000 0.000000 0.000000 -0.000000 0.000000 -0.000000 0.000000 -18.481100 -0.466330 3.265060 -70.692902 43.102299 33.823601 0.000000 -0.000000 0.000000 6.896640 -15.423900 -16.528299 -0.000000 0.000000 -0.000000 16.668900 0.350212 0.136387 68.984596 38.807499 -31.696699 -0.000000 0.000000 0.000000 -4.997680 -8.085190 6.667310 -0.000000 0.000000 0.000000 0.000000 0.000000 0.000000 
-0.623118 33.079250 -1.242215 -0.842733 4.466060 -1.338580 -0.145355 -1.537740 9.149100 0.000000 -0.000000 0.000000 0.064303 -0.993943 0.090879 0.000000 -0.000000 0.000000 -19.351400 34.861000 5.816090 3.999270 -2.644320 -2.025060 0.000000 0.000000 0.000000 -0.063821 5.653530 0.185281 -0.000000 0.000000 0.000000 11.875100 24.640301 -4.235100 1.492710 -0.133311 -0.157562 -0.000000 0.000000 -0.000000 0.000000 0.000000 -0.000000 0.000000 -0.000000 0.000000 -18.375500 -0.468163 3.243200 -70.621002 43.560299 34.536499 0.000000 -0.000000 0.000000 8.025040 -17.084801 -19.233000 -0.000000 0.000000 -0.000000 16.576799 0.398617 -0.240913 73.948601 44.928699 -35.694599 -0.000000 0.000000 0.000000 -9.821340 -6.883720 10.489500 -0.000000 0.000000 0.000000 0.000000 0.000000 0.000000 
-0.645118 32.449501 -1.279575 -0.402085 5.184970 -2.159300 -0.774679 -3.186090 6.639140 0.000000 -0.000000 0.000000 0.251788 -1.523360 0.078470 0.000000 -0.000000 0.000000 -17.516800 31.781200 4.375990 3.286110 -4.047170 -2.306380 0.000000 0.000000 0.000000 -0.336587 5.107600 0.242733 -0.000000 0.000000 0.000000 11.758100 21.189699 -3.528040 1.508850 -0.134570 -0.051260 -0.000000 0.000000 -0.000000 0.000000 0.000000 -0.000000 0.000000 -0.000000 0.000000 -18.025999 -0.455527 3.195540 -70.871902 44.621799 35.197899 0.000000 -0.000000 0.000000 8.748380 -18.822399 -22.625900 -0.000000 0.000000 -0.000000 16.018801 0.415790 -0.424954 78.529999 48.821899 -39.339600 -0.000000 0.000000 0.000000 -13.417100 -7.758500 13.865400 -0.000000 0.000000 0.000000 0.000000 0.000000 0.000000 
-0.662867 31.405001 -1.329635 0.110692 5.593610 -2.365530 -1.131330 -4.474800 5.569400 0.000000 -0.000000 0.000000 0.073507 -1.042310 0.056596 0.000000 -0.000000 0.000000 -15.628800 27.114201 2.811750 2.273570 -4.992200 -1.820300 0.000000 0.000000 0.000000 -0.194900 5.043040 0.192177 -0.000000 0.000000 0.000000 9.751640 15.786200 -2.358750 1.371790 -0.148382 -0.040851 -0.000000 0.000000 -0.000000 0.000000 0.000000 -0.000000 0.000000 -0.000000 0.000000 -17.755501 -0.398684 3.413280 -70.868698 46.026600 35.663200 0.000000 -0.000000 0.000000 10.541200 -19.013000 -24.929399 -0.000000 0.000000 -0.000000 15.283800 0.412889 -0.484998 80.848602 49.788200 -40.986900 -0.000000 0.000000 0.000000 -15.355400 -9.478210 16.193501 -0.000000 0.000000 0.000000 0.000000 0.000000 0.000000 
-0.674680 29.938499 -1.330943 0.563892 6.214390 -2.851130 -1.303080 -5.843680 5.949520 0.000000 -0.000000 0.000000 -0.187435 -0.463343 0.079986 0.000000 -0.000000 0.000000 -13.703200 26.500500 2.296630 1.301350 -6.232510 -1.055360 0.000000 0.000000 0.000000 0.007544 4.867710 0.106375 -0.000000 0.000000 0.000000 7.218980 14.032000 -2.055610 1.136340 -0.190022 -0.002605 -0.000000 0.000000 -0.000000 0.000000 0.000000 -0.000000 0.000000 -0.000000 0.000000 -17.113899 -0.360400 3.334640 -71.038399 46.604099 35.846699 0.000000 -0.000000 0.000000 12.386000 -19.286400 -27.422300 -0.000000 0.000000 -0.000000 14.534900 0.413317 -0.579657 81.847298 49.068901 -41.289398 -0.000000 0.000000 0.000000 -17.293400 -11.018300 18.445000 -0.000000 0.000000 0.000000 0.000000 0.000000 0.000000 
-0.704965 28.110250 -1.305905 0.880031 6.008540 -3.259730 -0.901613 -7.828170 3.767480 0.000000 -0.000000 0.000000 -1.277920 5.307120 0.189195 0.000000 -0.000000 0.000000 -9.558310 27.930599 1.738270 -0.165168 -7.099540 3.697720 0.000000 0.000000 0.000000 1.026800 7.205040 -0.132296 -0.000000 0.000000 0.000000 5.081980 17.064400 -2.614670 0.646176 -0.134809 0.027273 -0.000000 0.000000 -0.000000 0.000000 0.000000 -0.000000 0.000000 -0.000000 0.000000 -15.240600 -0.390208 2.537010 -72.234596 46.087002 36.853802 0.000000 -0.000000 0.000000 12.537000 -21.832800 -30.890400 -0.000000 0.000000 -0.000000 13.716100 0.459358 -1.019780 83.966400 47.943600 -41.982201 -0.000000 0.000000 0.000000 -20.146799 -12.983700 21.716999 -0.000000 0.000000 0.000000 0.000000 0.000000 0.000000 
-0.752433 25.928249 -1.419360 0.812346 6.501930 -3.222140 -0.035744 -13.593500 -2.569040 0.000000 -0.000000 0.000000 -4.332240 18.502501 0.760293 0.000000 -0.000000 0.000000 -2.467120 18.367201 0.327054 -0.548602 -11.138300 12.921700 0.000000 0.000000 0.000000 4.888150 16.742300 -1.338240 -0.000000 0.000000 0.000000 -0.235873 11.690000 -2.628570 0.567346 -0.129645 0.064926 -0.000000 0.000000 -0.000000 0.000000 0.000000 -0.000000 0.000000 -0.000000 0.000000 -14.718200 -0.544980 1.578720 -71.674500 45.929401 37.067902 0.000000 -0.000000 0.000000 13.728900 -24.064899 -35.542599 -0.000000 0.000000 -0.000000 13.595100 0.619666 -2.255530 84.446297 47.326900 -41.952202 -0.000000 0.000000 0.000000 -23.697100 -14.835300 25.303499 -0.000000 0.000000 0.000000 0.000000 0.000000 0.000000 
-0.809000 23.840401 -1.711938 0.412559 8.119690 -3.136220 1.087170 -20.265100 -4.885760 0.000000 -0.000000 0.000000 -8.864720 31.143101 2.963560 0.000000 -0.000000 0.000000 6.765220 2.401910 1.428530 -1.082640 -18.611099 16.858400 0.000000 0.000000 0.000000 14.371100 29.075199 -6.057360 -0.000000 0.000000 0.000000 -11.511700 -0.172492 -4.553300 0.996483 -0.176603 0.088079 -0.000000 0.000000 -0.000000 0.000000 0.000000 -0.000000 0.000000 -0.000000 0.000000 -14.957400 -0.608522 1.286450 -68.944901 45.146599 34.424801 0.000000 -0.000000 0.000000 17.042000 -23.305000 -37.256699 -0.000000 0.000000 -0.000000 14.389700 0.697580 -2.755600 81.351196 46.400600 -38.810699 -0.000000 0.000000 0.000000 -26.165100 -13.965700 26.193100 -0.000000 0.000000 0.000000 0.000000 0.000000 0.000000 
-0.777242 22.563625 -2.231710 0.985291 11.336100 -2.929050 0.559288 -29.409300 -4.676630 0.000000 -0.000000 0.000000 -12.569900 40.370899 5.417430 0.000000 -0.000000 0.000000 16.708200 -4.481660 5.927490 -2.047630 -30.303600 16.869600 0.000000 0.000000 0.000000 24.513100 41.139999 -13.279700 -0.000000 0.000000 0.000000 -20.535601 -4.781850 -8.624570 1.599380 -0.062497 0.142021 -0.000000 0.000000 -0.000000 0.000000 0.000000 -0.000000 0.000000 -0.000000 0.000000 -14.444700 -0.749821 0.324857 -65.887100 42.662800 29.386200 0.000000 -0.000000 0.000000 17.583700 -22.377600 -36.311600 -0.000000 0.000000 -0.000000 15.288700 0.612249 -1.951220 76.080200 44.936501 -31.523600 -0.000000 0.000000 0.000000 -25.524200 -10.509200 23.671801 -0.000000 0.000000 0.000000 0.000000 0.000000 0.000000 
-0.822900 21.939350 -2.608500 0.519541 12.286200 -2.536250 0.707319 -35.911400 -5.607240 0.000000 -0.000000 0.000000 -16.553301 48.053398 8.478420 0.000000 -0.000000 0.000000 22.818300 -3.957530 8.665920 -1.473680 -37.967800 17.661400 0.000000 0.000000 0.000000 34.090698 49.204201 -20.981001 -0.000000 0.000000 0.000000 -23.501801 -2.450530 -9.741730 2.096680 0.663373 0.218192 -0.000000 0.000000 -0.000000 0.000000 0.000000 -0.000000 0.000000 -0.000000 0.000000 -14.464600 -1.164800 -2.014150 -63.459499 41.420502 23.965700 0.000000 -0.000000 0.000000 13.996900 -23.619400 -35.106899 -0.000000 0.000000 -0.000000 14.378700 0.356754 -0.313069 71.714302 44.681499 -23.109900 -0.000000 0.000000 0.000000 -22.545601 -7.935530 20.461901 -0.000000 0.000000 0.000000 0.000000 0.000000 0.000000 
-0.877060 21.698626 -2.786975 0.320852 12.042200 -1.995890 0.237560 -37.645100 -7.382510 0.000000 -0.000000 0.000000 -18.274300 50.768501 9.862470 0.000000 -0.000000 0.000000 23.954901 -4.386220 9.261150 -1.120260 -39.281799 18.158501 0.000000 0.000000 0.000000 36.419102 50.721699 -22.893900 -0.000000 0.000000 0.000000 -24.072500 -3.294140 -10.189300 2.067010 0.870052 0.239566 -0.000000 0.000000 -0.000000 0.000000 0.000000 -0.000000 0.000000 -0.000000 0.000000 -14.067300 -1.323600 -3.040760 -62.240898 43.727402 21.695601 0.000000 -0.000000 0.000000 14.280700 -23.110399 -34.591000 -0.000000 0.000000 -0.000000 13.508900 0.255462 0.557013 71.238197 47.417599 -20.389099 -0.000000 0.000000 0.000000 -22.223801 -8.913950 20.773600 -0.000000 0.000000 0.000000 0.000000 0.000000 0.000000 
